# xmcd
#
# Track frame offsets:
#  150
#  12279
#  36399
#  55549
#  85446
#  126166
#  152366
#  171115
#  195381
#  213032
#  239145
#  271650
#
# Disc length: 4182 seconds
#
# Revision: 0
# Processed by: cddbd v1.5.1PL2 Copyright (c) Steve Scherf et al.
# Submitted via: Collectorz.com Music Collector 6.9
#
DISCID=9610540c
DTITLE=Michael Nesmith - Disc I
DYEAR=1975
DGENRE=Singer/Songwriter
TTITLE0=Intro
TTITLE1=Calico Girlfriend
TTITLE2=Joanne
TTITLE3=Mama Nantucket
TTITLE4=Silver Moon
TTITLE5=Listen To The Band
TTITLE6=The Crippled Lion
TTITLE7=Propinquity
TTITLE8=Different Drum
TTITLE9=Roll With The Flow
TTITLE10=Some Of Shelley's Blues
TTITLE11=Grand Ennui
EXTD=
EXTT0=
EXTT1=
EXTT2=
EXTT3=
EXTT4=
EXTT5=
EXTT6=
EXTT7=
EXTT8=
EXTT9=
EXTT10=
EXTT11=
PLAYORDER=
